<svg xmlns="http://www.w3.org/2000/svg" viewBox="0 0 400 400"><defs><style>.cls-1{fill:#fff;}</style></defs><title>Asset 1</title><g id="Layer_2" data-name="Layer 2"><g id="Layer_1-2" data-name="Layer 1"><path class="cls-1" d="M337,401H160l-6.12-3.92c-.72-2-2.64-4.87-3.41-4.59-5.68,2.05-10.3-.66-15.19-2.47a15.07,15.07,0,0,0-5.27-1.17,29.5,29.5,0,0,0-5.79,1.14c-1.78.36-3.44,2.24-5.17,2.32-4.16.17-11.36-11.18-10.35-15.34.42-1.7.07-3.58.07-6,.69-.09,2.42-.8,3.81-.38,4,1.17,7.73,3.23,11.75,4.09,2.31.5,5-.66,7.47-1.07-.47-2.85,0-6.43-1.6-8.39-3.47-4.29-9-7.13-11.75-11.74-3-5.05-6.8-6.48-11.75-7.18-.18,0-.3-.54-.76-1.45,3.14-2.51,6.34-5.19,9.68-7.68a14.24,14.24,0,0,1,3.53-1.37c-1.32-.58-2.61-1.55-4-1.68-5.4-.54-7.11-3.35-5.31-7h15.52L119,322.49l.78-1.81h12.92c-4.34-4.63-4-8.51-.67-11.4,1.86,1.44,3.41,3.43,5.36,4,2.9.76,3.53-1.78,4.4-4.15.94-2.57,2.79-2.67,4.2,0,.43.83.81,1.68.7,1.44,2.72-1.24,5-2.62,7.4-3.3,7.44-2.05,9.89-6.27,7.27-13.44a17.65,17.65,0,0,0,3.93-1.9,27,27,0,0,0,4-4.48c.14-.19-.8-1.21-1.23-1.84a35.43,35.43,0,0,1-4.4,3.4c-1.74,1-3.95,2.34-5.53,1.93-1.16-.3-1.65-3.21-2.39-5-.29-.69-.45-1.43-.7-2.25-6.76,4.52-6.76,4.52-3,9-1.76,3.5-3.51,6.94-5.32,10.53-1.38-1.35-3.77-2.59-1.9-6.31.72-1.44,0-4.75-1.18-5.73-2.36-1.9-8.15.29-9.58,3.08-1.92,3.77,2,3.29,3.43,4.59a7.59,7.59,0,0,1,.94,1.29c-1.85,3.3-3.77,5-7.29,1.7a4.35,4.35,0,0,0-4-.34,5.25,5.25,0,0,0-2.38,3.5c-.14,1.06,1.13,2.28,1.67,3.48,2.4,5.37.33,9.39-4.82,8.89,1.47-3.87,3.15-7.41,0-11.64-1.66-2.19-2.13-6.47-1.2-9.13a23.89,23.89,0,0,1,6.84-10.06c11.57-9.62,23.54-18.76,35.38-28,8.34-6.53,16.76-12.94,25-19.54,1.76-1.4,3.05-3.39,4.56-5.11l-.9-1.42c-2.23.16-4.46.45-6.7.46-2,0-3.8.65-4.37-2.95-.36-2.31-4.22-4.07-6.51-6.07a11.34,11.34,0,0,0-2.18,2.73,9.35,9.35,0,0,0-.08,3.22c-5.61,1.07-15.08-3.09-18.68-8.84,2,.77,3.07,1.13,4.11,1.58,6.38,2.77,12.79-1.83,12-8.7-.37-3.3-1-6.57-1.38-9.88-.56-5.2,1.89-8.21,7.05-8.61,3.73-.29,7.59.18,11.2-.58,3.26-.68,6.29-2.52,9.38-3.94,2.18-1,4.18-2.52,6.45-3.18,6.45-1.88,13-3.53,19.53-5.06a65.79,65.79,0,0,1,10.69-1.73c3.7-.25,6,1.68,6.15,5.61.08,2.53,0,5.07,0,8.12,3.41-2.19,5-3.95,3.28-8a27.73,27.73,0,0,1-2.11-11.15c.05-5.69,1-11.37,1.71-18.15a97.74,97.74,0,0,0-7.38,6.87c-2.93,3.33-11.07,6.83-14.06,5.94a15.18,15.18,0,0,0-5.64-.59c-7.13.76-13.58.2-17.26-7.24-.32-.64-1.23-1-1.93-1.44-5.91-3.49-14-5.35-11.44-15.22.11-.41-.42-1-.38-1.41.17-1.59.19-4.4.77-4.53,1.77-.4,4.41-.45,5.54.61,2.27,2.11,3.77,5.05,5.41,7.41,6.36.57,12.86,1.23,19.36,1.73a26.44,26.44,0,0,0,7.28-.14c1.32-.27,2.36-1.9,3.52-2.92-1.48-.77-2.92-2.09-4.44-2.19-4.63-.3-9.36.27-13.94-.32-2.58-.33-5-2.26-8-3.73,5.93-4.31,18.28-5,24.93-1.12,3.25,1.88,8.33.64,10,5.49,0,.11,3.25-.21,4.06-1.14,4.89-5.6,2.65-12.24-4.58-14.18-5.93-1.59-7.45-4.16-6.64-10.7.13-1-.28-2.67-1-3a57.7,57.7,0,0,0-6.93-2.74,72.67,72.67,0,0,1-9.92-4.07c-.39-.21,1.21-3.93,1.85-6a5.36,5.36,0,0,0,.35-2c-.64-7,.89-14-2.08-21-2.6-6.1-6.34-10.38-12.39-12.68-3.71-1.41-7.55-2.46-11.28-3.82s-6.43-4.05-4.86-8c2-5,2.27-11.38,8.87-13.56A3.64,3.64,0,0,0,190.73,39c.37-6.18,5.17-6.33,9.35-6.73s8.75.57,12.94-.17c11.59-2,16.76,6.93,22.49,13.55,5,5.77,7.88,13.4,11.52,20.31,2.34,4.45,1.13,6.56-3.72,5.81-5.89-.91-10.91,1-15.71,3.66-5.31,3-5.75,8.37-4.75,13.54.45,2.33,2.85,4.29,4.89,7.17,2.79-7.09,3.76-7.2,8-3.29.91.85,3,.86,4.43.6a26.67,26.67,0,0,0,5.16-2.08c-1,1.58-2.07,3.14-3.08,4.72a19.75,19.75,0,0,0-.82,2.2c2.51-.47,4.35-.8,6.19-1.16,2.6-.5,5.91-1.62,6.83,1.82,1.29,4.84,1.69,9.93,2.29,14.94.38,3.19.44,6.41.64,9.62l1.83.13c.67-1.24,1.37-2.47,2-3.73,3.65-7,6.09-14.57,11.75-20.44a60.64,60.64,0,0,0,7.52-9.72c6.44-10.18,7.07-20.88,2.23-31.91a12,12,0,0,1-1.42-4.23c-.19-9.86-4.9-18-11-24.93s-12.63-14.07-20.43-18.59c-10.58-6.13-22.94-5.63-35-4.17-4.52.54-9.2-.16-13.8-.44C193,5,184.81,3.4,176.83,4A29.86,29.86,0,0,0,155.5,15.54a5.78,5.78,0,0,1-4,2.13c-7.11-.38-11.49,3.64-15.87,8.48-5.26,5.82-11.14,11.06-16.44,16.26-1.31,1.93-2.09,4-3.61,5.19-10.38,7.86-11.83,13.83-5.84,25,1.09,2,1.8,4.28,2.89,6.32,2.1,3.89,4,7.94,6.61,11.47,4.46,6.06,9,12,10.08,19.7,1.2,8.43,4.11,15.5,12.51,19.39,6.3,2.92,10.5,7.73,11.67,15,.81,5.06,2.62,10,3.32,15a87.65,87.65,0,0,1-2.43,34.59c-1,3.82-3.08,5.46-7.26,4.83-6.93-1-13.66-.35-19.16,4.64-3.93,3.57-8.58,3.52-13.48,3.77a226.15,226.15,0,0,0-26.65,2.59c-16.18,2.77-28.72,12.55-38.1,25-8,10.54-14.12,22.86-19,35.21-5.57,14.12-8.77,29.17-13.15,43.77-1.52,5-5.27,10.05-5,14.88.9,14.11-8.48,25.05-10.27,38.16-.1.74-.87,1.39-1.33,2.08V1H401V342c-2.5,1.46-3.08-.35-3.85-2.15-3.2-7.56-6.28-15.1-15.85-17-2.81-.54-5.27-2.84-8.72-4.82L388,313.73c-.55-1.35-1.09-2.66-1.64-4l1.09.23,2.09-5.34c-2,.45-4.24.47-5.92,1.46-3.26,1.91-5.91,5.19-9.34,6.41-5.11,1.82-10.7,3.3-16,3.19-7.66-.16-12.5,3.9-16.9,8.89-3.21,3.63-5.38,8.19-8.5,11.92-3.95,4.71-8.45,8.94-12.6,13.47-6.16,6.72-11.92,13.82-20.54,17.75-2,.92-3.59,2.86-5.36,4.33-6.07,5.07-11.56,11.11-19.89,12.55-1.62.28-4.47.64-4.78,0-.95-1.95-1.61-4.56-1-6.54.36-1.29,3.18-2.93,4.64-2.71,5.61.84,5.76-2.14,5.13-6.37l-4.48,1.33a3.52,3.52,0,0,1,1.41-3c6-3.67,7.38-10.48,9.53-16.09,2.28-6,3.82-11.23,10.24-14.18a11.55,11.55,0,0,0,4.86-16.59l-4.62,3.6c-3.07-5.32,6.35-7.13,2-12.82-2.46,4.45-5.71,5.74-10.57,5-1.88-.29-4.34,3.23-6.53,5,.41.59.82,1.18,1.24,1.76l5.73-2.48,3.86,4.61c-2.06,3.52-11.28,1.14-8.34,9.61l-4.68-.46c-2.14,3.35-4.9,6.22-6,9.63-3.06,9.61-3,19.8-8.43,29.2-5,8.75-9.31,14.12-19.26,14.36-2.07.05-4.3-1.48-6.24-1.12-8.74,1.65-15.13-.73-17.59-9.41a37.19,37.19,0,0,0,2.59-7.43c.47-1.75,1-3.49,1.41-5.24.61-2.52,1.15-5,1.72-7.56l-1.6-.72c-2.53,4.54-5.07,9.08-7.86,14.07-1.4-2.15-2.51-3.85-3.6-5.54a18.66,18.66,0,0,1-1.8.7c-8.32,2.22-13.58,6.57-11.78,16.22.1.54-1.67,1.43-2.58,2.15-.48-1.19-1.55-2.49-1.35-3.56a165.73,165.73,0,0,1,3.73-16.55c1.68-5.7,3.94-11.23,6.37-18-2.68,2.14-5.28,3.26-6.28,5.2-4.64,9-9.08,18.11-13.06,27.4-1.61,3.75-4.52,4-7.26,3.75-3-.29-5.84-1.89-8.71-3-.26-.1-.47-1-.34-1.35,1.45-4.28,2.6-8.73,4.57-12.77s5-7.65,7.24-11.61c4.74-8.31,9.3-16.73,13.93-25.1,3.4-6.15,9.12-11.11,9.44-18.86,0-1,1.08-2,1.7-3,7-11.13,14.22-22.18,21-33.44,1.67-2.77,2.15-6.25,3.18-9.4l-1.85-.85c-1.14,2-2.24,4-3.43,6a49.54,49.54,0,0,1-3.71,5.72c-2.5,3.06-5.71,5.62-7.75,8.94-4.88,7.94-8.2,16.82-14.7,23.8-.68.72-.54,2.16-.91,3.22a11.27,11.27,0,0,1-1.37,3c-2,2.72-4.53,5.14-6.17,8.06-2.07,3.69-3.21,7.89-5.24,11.61-3,5.42-6.65,10.46-9.51,15.94-3.13,6-5.6,12.35-8.51,18.48-1.67,3.54-3.07,7.5-8,7.85-1.75.13-3.49.39-5.23.59,0-2-.45-4.2.21-6,1.09-2.9,3.19-5.41,4.4-8.28,3-7.15,5.84-14.39,8.62-21.63,1.59-4.15,3-8.4,4.42-12.6l-2.52-1c-3.72,8.39-7.14,16.93-11.23,25.13-4.2,8.46-9.05,16.6-13.7,25,0,0,.14.46.37.51,10.27,2.47,20.51,5,30.83,7.28,5.75,1.24,11.61,2,17.44,2.81,8,1.07,16.14,1.78,24.16,3,5.84.86,12.91-1.7,16.12,5.2,2.42-1.15,4.74-3.29,6.56-2.93,6,1.2,11.69,0,17.62-.49,9-.77,18.12,1.13,27.21,1.33,6.38.15,13.17.61,19.08-1.27,9.93-3.17,25.69-.17,32.2,7.81A3.57,3.57,0,0,1,337,401ZM225.18,239.28c-3.41-.9-5.43.54-7.43,3.35-1.19,1.67-4,2.09-5.91,3.35a49.32,49.32,0,0,0-4.66,3.94c1.32,1.39,2.85,4.09,3.93,3.93a54.1,54.1,0,0,0,12.59-3.54c2.86-1.19,4.15-3.61,2-6.9-.71-1.11-.48-2.82-.68-4.26,1.61.24,3.38.13,4.79.79,2.93,1.39,5.12,1.07,6.54-1.93,1.29-2.69.8-4.63-2.34-5.8a7.54,7.54,0,0,1-3.18-3.13c-1.89-3-4.08-2.72-4.94.17C225,232.4,225.37,235.92,225.18,239.28ZM246,308c-5.16-1.14-6.9.38-7.36,6.06a37.73,37.73,0,0,1-1.25,5.56l-1.56-.24c-.6-3,1.26-7.67-5.88-7.24.84,5,1.54,9.74,2.52,14.4.12.54,2.27,1.35,2.72,1a96.27,96.27,0,0,0,8.58-7c3.89-3.62,2.48-8.26,2.09-12.67,2-.38,5.21-.13,5.78-1.24,2.28-4.42,3.73-9.26,5.77-14.69-11.09,4.69-11.47,5.23-11.34,15.08C246.07,307.36,246,307.69,246,308Zm147.65-12c-1-1.35-2.19-2.64-3.14-4.06-1.07-1.6-2.87-3.37-2.78-5,.34-5.85.09-12.22,2.38-17.37,3.07-6.89,1.17-14,2.89-20.75.22-.87-1.05-2.11-1.63-3.18a10.6,10.6,0,0,0-2.45,1.94q-5,7.27-9.72,14.68c-6.11,9.56-10.89,19.71-13.21,30.89a17,17,0,0,0,.19,3.93l12.45-8.59c-1.76-2.08-3.85-4.85,1-7.28C384.38,286.09,384.64,294.89,393.65,296ZM268.08,241.53c2.6-1.25,4.15-2.32,5.86-2.7,1.21-.26,2.63.42,4,.68-.29.81-.37,2.11-.92,2.36-2.94,1.3-6.2,2-9,3.6-1.91,1.1-3.18,3.29-4.73,5,1.51,1,3,2,4.55,2.86,1,.54,2.22.62,3.06,1.27,2.85,2.19,5.58-.07,5.34-1.78-1.17-8.61,10.86-8.41,10.4-16.26,0-.24,1.4-.68,2.19-.82,3.4-.62,4-2.46,2.58-5.4-1.72-3.5-1-6.33,2.17-8.75.78-.58,1.41-2.76,1-3.3-1.64-2.05-3.81-5.31-5.65-5.22-3.65.17-4.7,3.66-4.1,7.2.28,1.62,1,3.18,1.11,4.79.21,2.43,0,4.86-3.42,4.69C272.33,229.22,271.1,230.09,268.08,241.53ZM169.69,273a26.91,26.91,0,0,0-3.67,4.37,4,4,0,0,0,.28,3.62,57.58,57.58,0,0,0,6.08,6.8c.75.73,2,.92,3.06,1.35.39-1.26,1.2-2.58,1.07-3.79s-1.2-2.32-2.64-4.86l6.34,1.61,6.74-5.09-10.07-4.78ZM311,286.61c-1.59,2.43-2.86,3.92-3.62,5.63-3.3,7.41-10.74,13.77-5.79,23.18C305.77,314.18,313.12,294.05,311,286.61Zm-91.19,60.94a57.85,57.85,0,0,0,7.28,2.07c1.25.18,3.48-.24,3.82-1a63,63,0,0,0,3.51-10.74c.2-.86-1-2.6-2-3-.73-.3-2.16.75-3.12,1.42s-1.73,2.14-2.81,2.47C221.51,340.25,221.78,345,219.81,347.55Zm-38.68-90c1.81,3.51,2.85,5.36,3.74,7.28,2.15,4.63,3.49,5.16,7.24,1.71,3.22-2.94,5.86-6.5,8-9Zm58.68,28.72c-3.79,3.5-7.05,6.1-9.72,9.21-.79.93-.49,3.8.4,4.86.77.91,4,1.26,4.56.55,1.61-1.87,2.39-4.44,3.95-7.65l3.54-1.69ZM268.72,270c-4.9,1.89-8.34,3.06-11.61,4.58-.93.43-1.37,1.92-2,2.92,2.08,1.16,4.06,2.75,6.3,3.31a4.94,4.94,0,0,0,4.35-1.73C267,276.75,267.5,273.93,268.72,270Zm-9.5-4.15c2.31.49,4.72,1.8,6.36,1.15,2.79-1.1,5.16-3.35,7.5-5.37.25-.23-.65-2.64-1.5-3.07a4.63,4.63,0,0,0-4,0C264.92,260.43,262.61,262.82,259.22,265.85Zm-8.9-57.6c-1.43,4.22-2.61,7.26-3.34,10.41-.07.34,2.77,2.13,3.7,1.78C253.23,219.47,253.77,212.09,250.32,208.25Zm2.29,63.07c5,.05,5.75-2.44,5.12-5.1-.28-1.21-2.35-2-3.6-3C253.67,265.71,253.2,268.15,252.61,271.32ZM133.74,338.51a43.67,43.67,0,0,0,3.65-3.08c-1.37-2-3-3.88-4.56-5.77l-1.56.73C132,332.78,132.73,335.17,133.74,338.51ZM252.47,228.23l2.58,1.67a57.57,57.57,0,0,0,2.61-5.58c.11-.32-1.18-1.15-1.82-1.75ZM121.17,339.52l-1.41,1.28,5.25,6,1.8-1.61Z" transform="translate(-1 -1)"/><path d="M1,369c.46-.69,1.23-1.34,1.33-2.08,1.79-13.11,11.17-24.05,10.27-38.16-.31-4.83,3.44-9.84,5-14.88,4.38-14.6,7.58-29.65,13.15-43.77,4.88-12.35,11-24.67,19-35.21,9.38-12.44,21.92-22.22,38.1-25a226.15,226.15,0,0,1,26.65-2.59c4.9-.25,9.55-.2,13.48-3.77,5.5-5,12.23-5.68,19.16-4.64,4.18.63,6.24-1,7.26-4.83a87.65,87.65,0,0,0,2.43-34.59c-.7-5.07-2.51-10-3.32-15-1.17-7.24-5.37-12-11.67-15-8.4-3.89-11.31-11-12.51-19.39-1.1-7.68-5.62-13.64-10.08-19.7-2.6-3.53-4.51-7.58-6.61-11.47-1.09-2-1.8-4.28-2.89-6.32-6-11.17-4.54-17.14,5.84-25,1.52-1.15,2.3-3.26,3.61-5.19,5.3-5.2,11.18-10.44,16.44-16.26,4.38-4.84,8.76-8.86,15.87-8.48a5.78,5.78,0,0,0,4-2.13A29.86,29.86,0,0,1,176.83,4c8-.61,16.12.94,24.2,1.45,4.6.28,9.28,1,13.8.44,12.1-1.46,24.46-2,35,4.17,7.8,4.52,14.37,11.67,20.43,18.59s10.79,15.07,11,24.93a12,12,0,0,0,1.42,4.23c4.84,11,4.21,21.73-2.23,31.91A60.64,60.64,0,0,1,273,99.45c-5.66,5.87-8.1,13.48-11.75,20.44-.65,1.26-1.35,2.49-2,3.73l-1.83-.13c-.2-3.21-.26-6.43-.64-9.62-.6-5-1-10.1-2.29-14.94-.92-3.44-4.23-2.32-6.83-1.82-1.84.36-3.68.69-6.19,1.16a19.75,19.75,0,0,1,.82-2.2c1-1.58,2.05-3.14,3.08-4.72a26.67,26.67,0,0,1-5.16,2.08c-1.43.26-3.52.25-4.43-.6-4.21-3.91-5.18-3.8-8,3.29-2-2.88-4.44-4.84-4.89-7.17-1-5.17-.56-10.54,4.75-13.54,4.8-2.7,9.82-4.57,15.71-3.66,4.85.75,6.06-1.36,3.72-5.81-3.64-6.91-6.52-14.54-11.52-20.31C229.78,39,224.61,30,213,32.08c-4.19.74-8.66-.24-12.94.17s-9,.55-9.35,6.73a3.64,3.64,0,0,1-1.93,2.67c-6.6,2.18-6.87,8.58-8.87,13.56-1.57,3.91,1.18,6.61,4.86,8s7.57,2.41,11.28,3.82c6.05,2.3,9.79,6.58,12.39,12.68,3,7,1.44,14,2.08,21a5.36,5.36,0,0,1-.35,2c-.64,2.11-2.24,5.83-1.85,6a72.67,72.67,0,0,0,9.92,4.07,57.7,57.7,0,0,1,6.93,2.74c.69.37,1.1,2,1,3-.81,6.54.71,9.11,6.64,10.7,7.23,1.94,9.47,8.58,4.58,14.18-.81.93-4,1.25-4.06,1.14-1.67-4.85-6.75-3.61-10-5.49-6.65-3.88-19-3.19-24.93,1.12,3,1.47,5.38,3.4,8,3.73,4.58.59,9.31,0,13.94.32,1.52.1,3,1.42,4.44,2.19-1.16,1-2.2,2.65-3.52,2.92a26.44,26.44,0,0,1-7.28.14c-6.5-.5-13-1.16-19.36-1.73-1.64-2.36-3.14-5.3-5.41-7.41-1.13-1.06-3.77-1-5.54-.61-.58.13-.6,2.94-.77,4.53,0,.45.49,1,.38,1.41-2.53,9.87,5.53,11.73,11.44,15.22.7.41,1.61.8,1.93,1.44,3.68,7.44,10.13,8,17.26,7.24a15.18,15.18,0,0,1,5.64.59c3,.89,11.13-2.61,14.06-5.94a97.74,97.74,0,0,1,7.38-6.87c-.69,6.78-1.66,12.46-1.71,18.15a27.73,27.73,0,0,0,2.11,11.15c1.76,4,.13,5.79-3.28,8,0-3,.07-5.59,0-8.12-.13-3.93-2.45-5.86-6.15-5.61a65.79,65.79,0,0,0-10.69,1.73c-6.55,1.53-13.08,3.18-19.53,5.06-2.27.66-4.27,2.18-6.45,3.18-3.09,1.42-6.12,3.26-9.38,3.94-3.61.76-7.47.29-11.2.58-5.16.4-7.61,3.41-7.05,8.61.34,3.31,1,6.58,1.38,9.88.79,6.87-5.62,11.47-12,8.7-1-.45-2.11-.81-4.11-1.58,3.6,5.75,13.07,9.91,18.68,8.84a9.35,9.35,0,0,1,.08-3.22,11.34,11.34,0,0,1,2.18-2.73c2.29,2,6.15,3.76,6.51,6.07.57,3.6,2.4,2.95,4.37,2.95,2.24,0,4.47-.3,6.7-.46l.9,1.42c-1.51,1.72-2.8,3.71-4.56,5.11-8.28,6.6-16.7,13-25,19.54-11.84,9.28-23.81,18.42-35.38,28a23.89,23.89,0,0,0-6.84,10.06c-.93,2.66-.46,6.94,1.2,9.13,3.19,4.23,1.51,7.77,0,11.64,5.15.5,7.22-3.52,4.82-8.89-.54-1.2-1.81-2.42-1.67-3.48a5.25,5.25,0,0,1,2.38-3.5,4.35,4.35,0,0,1,4,.34c3.52,3.32,5.44,1.6,7.29-1.7a7.59,7.59,0,0,0-.94-1.29c-1.46-1.3-5.35-.82-3.43-4.59,1.43-2.79,7.22-5,9.58-3.08,1.23,1,1.9,4.29,1.18,5.73-1.87,3.72.52,5,1.9,6.31,1.81-3.59,3.56-7,5.32-10.53-3.75-4.46-3.75-4.46,3-9,.25.82.41,1.56.7,2.25.74,1.76,1.23,4.67,2.39,5,1.58.41,3.79-1,5.53-1.93a35.43,35.43,0,0,0,4.4-3.4c.43.63,1.37,1.65,1.23,1.84a27,27,0,0,1-4,4.48,17.65,17.65,0,0,1-3.93,1.9c2.62,7.17.17,11.39-7.27,13.44-2.44.68-4.68,2.06-7.4,3.3.11.24-.27-.61-.7-1.44-1.41-2.67-3.26-2.57-4.2,0-.87,2.37-1.5,4.91-4.4,4.15-2-.52-3.5-2.51-5.36-4-3.35,2.89-3.67,6.77.67,11.4H119.82l-.78,1.81,6.34,4.62H109.86c-1.8,3.62-.09,6.43,5.31,7,1.37.13,2.66,1.1,4,1.68a14.24,14.24,0,0,0-3.53,1.37c-3.34,2.49-6.54,5.17-9.68,7.68.46.91.58,1.43.76,1.45,5,.7,8.8,2.13,11.75,7.18,2.71,4.61,8.28,7.45,11.75,11.74,1.58,2,1.13,5.54,1.6,8.39-2.5.41-5.16,1.57-7.47,1.07-4-.86-7.77-2.92-11.75-4.09-1.39-.42-3.12.29-3.81.38,0,2.46.35,4.34-.07,6-1,4.16,6.19,15.51,10.35,15.34,1.73-.08,3.39-2,5.17-2.32a29.5,29.5,0,0,1,5.79-1.14,15.07,15.07,0,0,1,5.27,1.17c4.89,1.81,9.51,4.52,15.19,2.47.77-.28,2.69,2.61,3.41,4.59L160,401H60c3.09-6.45,2.33-10-2-12.37a28.71,28.71,0,0,0-25.77-1.35c-6.43,2.63-7,3.6-1.81,11.16v-8.67l8.12,5.44L30,401H1ZM189.51,92.77l-.26,2.13c-4-.33-8.2,0-11.91-1.16-6.15-1.95-10,.75-9.46,7.35.12,1.47-1,3-1.12,4.54-.31,3.8-.83,7.67-.37,11.41a24,24,0,0,0,3.24,8.42,8.5,8.5,0,0,0,4.29,3.86c.8.26,2.51-2,3.68-3.28a16.76,16.76,0,0,0,1.64-2.92c3.44,5.3,7.28,4,11.39,1.78,1.4-.76,3.21-.71,4.81-1.12,2.84-.73,3.82-2.21,2.43-5.15a10,10,0,0,1-1.18-5.51c1.46-8.49,3.27-16.91,4.95-25.31-6.3-3-12.76,2.23-18.49-1.66-.22-.15-1.86,1-1.92,1.65a2.91,2.91,0,0,0,1.44,2.25C184.87,91.12,187.22,91.89,189.51,92.77ZM105.87,316.13c.31-.09,1.74-.08,2.1-.69A14.46,14.46,0,0,0,110,310c.11-.88-1.32-2-2.05-2.93-1,1.23-2,2.5-3,3.68-1.8,2-3.56,4.09-5.54,5.94a35.77,35.77,0,0,1-4.59,3.09c3.1,3.91,6.82,3.6,10.25,3C105.64,322.73,105.56,319.05,105.87,316.13ZM198.19,83c-3.22-7.89-10.68-9.21-16.41-3.16Zm21.31,49c-4.57-6.82-7.34-7.15-12.72-1.5C210.36,133.6,216,134.27,219.5,132ZM231.27,84l.53,2,9.68.48.78-1.85c-1.69-1.11-3.35-3-5.08-3.1C235.25,81.52,233.24,83.14,231.27,84Zm-10.12,33-13.41,1C210.85,121.94,217.19,121.57,221.15,117Z" transform="translate(-1 -1)"/><path d="M337,401a3.57,3.57,0,0,0-.37-1.41c-6.51-8-22.27-11-32.2-7.81-5.91,1.88-12.7,1.42-19.08,1.27-9.09-.2-18.25-2.1-27.21-1.33-5.93.51-11.59,1.69-17.62.49-1.82-.36-4.14,1.78-6.56,2.93-3.21-6.9-10.28-4.34-16.12-5.2-8-1.19-16.11-1.9-24.16-3-5.83-.78-11.69-1.57-17.44-2.81-10.32-2.24-20.56-4.81-30.83-7.28-.23-.05-.37-.51-.37-.51,4.65-8.42,9.5-16.56,13.7-25,4.09-8.2,7.51-16.74,11.23-25.13l2.52,1c-1.47,4.2-2.83,8.45-4.42,12.6-2.78,7.24-5.6,14.48-8.62,21.63-1.21,2.87-3.31,5.38-4.4,8.28-.66,1.76-.18,4-.21,6,1.74-.2,3.48-.46,5.23-.59,4.9-.35,6.3-4.31,8-7.85,2.91-6.13,5.38-12.48,8.51-18.48,2.86-5.48,6.55-10.52,9.51-15.94,2-3.72,3.17-7.92,5.24-11.61,1.64-2.92,4.16-5.34,6.17-8.06a11.27,11.27,0,0,0,1.37-3c.37-1.06.23-2.5.91-3.22,6.5-7,9.82-15.86,14.7-23.8,2-3.32,5.25-5.88,7.75-8.94a49.54,49.54,0,0,0,3.71-5.72c1.19-2,2.29-4,3.43-6l1.85.85c-1,3.15-1.51,6.63-3.18,9.4C221.19,284,214,295,207,306.16c-.62,1-1.66,2-1.7,3-.32,7.75-6,12.71-9.44,18.86-4.63,8.37-9.19,16.79-13.93,25.1-2.26,4-5.25,7.54-7.24,11.61s-3.12,8.49-4.57,12.77c-.13.39.08,1.25.34,1.35,2.87,1.13,5.73,2.73,8.71,3,2.74.26,5.65,0,7.26-3.75,4-9.29,8.42-18.41,13.06-27.4,1-1.94,3.6-3.06,6.28-5.2-2.43,6.77-4.69,12.3-6.37,18a165.73,165.73,0,0,0-3.73,16.55c-.2,1.07.87,2.37,1.35,3.56.91-.72,2.68-1.61,2.58-2.15-1.8-9.65,3.46-14,11.78-16.22a18.66,18.66,0,0,0,1.8-.7c1.09,1.69,2.2,3.39,3.6,5.54,2.79-5,5.33-9.53,7.86-14.07l1.6.72c-.57,2.52-1.11,5-1.72,7.56-.43,1.75-.94,3.49-1.41,5.24a37.19,37.19,0,0,1-2.59,7.43c2.46,8.68,8.85,11.06,17.59,9.41,1.94-.36,4.17,1.17,6.24,1.12,10-.24,14.22-5.61,19.26-14.36,5.41-9.4,5.37-19.59,8.43-29.2,1.08-3.41,3.84-6.28,6-9.63l4.68.46c-2.94-8.47,6.28-6.09,8.34-9.61l-3.86-4.61L281.42,323c-.42-.58-.83-1.17-1.24-1.76,2.19-1.78,4.65-5.3,6.53-5,4.86.73,8.11-.56,10.57-5,4.38,5.69-5,7.5-2,12.82l4.62-3.6a11.55,11.55,0,0,1-4.86,16.59c-6.42,2.95-8,8.21-10.24,14.18-2.15,5.61-3.53,12.42-9.53,16.09a3.52,3.52,0,0,0-1.41,3l4.48-1.33c.63,4.23.48,7.21-5.13,6.37-1.46-.22-4.28,1.42-4.64,2.71-.56,2,.1,4.59,1,6.54.31.64,3.16.28,4.78,0,8.33-1.44,13.82-7.48,19.89-12.55,1.77-1.47,3.33-3.41,5.36-4.33,8.62-3.93,14.38-11,20.54-17.75,4.15-4.53,8.65-8.76,12.6-13.47,3.12-3.73,5.29-8.29,8.5-11.92,4.4-5,9.24-9,16.9-8.89,5.35.11,10.94-1.37,16-3.19,3.43-1.22,6.08-4.5,9.34-6.41,1.68-1,3.93-1,5.92-1.46L387.44,310l-1.09-.23c.55,1.32,1.09,2.63,1.64,4l-15.41,4.32c3.45,2,5.91,4.28,8.72,4.82,9.57,1.88,12.65,9.42,15.85,17,.77,1.8,1.35,3.61,3.85,2.15v16c-2.86,2.29-5.45,5.12-8.65,6.76-7.36,3.76-14.53,7.67-19.44,14.57-4.63,6.51-8.25,13.5-8.91,21.67ZM211.31,374.07l-2.31-.7c-.92,2.81-1.93,5.6-2.62,8.47-.08.33,1.61,1.56,2.43,1.51s2.3-1.05,2.38-1.77A62.65,62.65,0,0,0,211.31,374.07Z" transform="translate(-1 -1)"/><path class="cls-1" d="M364,401c.66-8.17,4.28-15.16,8.91-21.67,4.91-6.9,12.08-10.81,19.44-14.57,3.2-1.64,5.79-4.47,8.65-6.76v43Z" transform="translate(-1 -1)"/><path class="cls-1" d="M30,401l8.52-5.79-8.12-5.44v8.67c-5.18-7.56-4.62-8.53,1.81-11.16A28.71,28.71,0,0,1,58,388.63c4.35,2.33,5.11,5.92,2,12.37Z" transform="translate(-1 -1)"/><path d="M393.65,296c-9-1.12-9.27-9.92-14-14.77-4.82,2.43-2.73,5.2-1,7.28l-12.45,8.59a17,17,0,0,1-.19-3.93c2.32-11.18,7.1-21.33,13.21-30.89q4.74-7.43,9.72-14.68a10.6,10.6,0,0,1,2.45-1.94c.58,1.07,1.85,2.31,1.63,3.18-1.72,6.79.18,13.86-2.89,20.75-2.29,5.15-2,11.52-2.38,17.37-.09,1.61,1.71,3.38,2.78,5C391.46,293.37,392.6,294.66,393.65,296Z" transform="translate(-1 -1)"/><path d="M268.08,241.53c3-11.44,4.25-12.31,14.43-11.79,3.45.17,3.63-2.26,3.42-4.69-.14-1.61-.83-3.17-1.11-4.79-.6-3.54.45-7,4.1-7.2,1.84-.09,4,3.17,5.65,5.22.43.54-.2,2.72-1,3.3-3.21,2.42-3.89,5.25-2.17,8.75,1.44,2.94.82,4.78-2.58,5.4-.79.14-2.2.58-2.19.82.46,7.85-11.57,7.65-10.4,16.26.24,1.71-2.49,4-5.34,1.78-.84-.65-2.1-.73-3.06-1.27-1.56-.87-3-1.89-4.55-2.86,1.55-1.7,2.82-3.89,4.73-5,2.75-1.59,6-2.3,9-3.6.55-.25.63-1.55.92-2.36-1.33-.26-2.75-.94-4-.68C272.23,239.21,270.68,240.28,268.08,241.53Z" transform="translate(-1 -1)"/><path d="M245.86,307.88c.39,4.41,1.8,9.05-2.09,12.67a96.27,96.27,0,0,1-8.58,7c-.45.33-2.6-.48-2.72-1-1-4.66-1.68-9.38-2.52-14.4,7.14-.43,5.28,4.24,5.88,7.24l1.56.24a37.73,37.73,0,0,0,1.25-5.56c.46-5.68,2.2-7.2,7.36-6.06Z" transform="translate(-1 -1)"/><path d="M169.69,273l7.19-.77L187,277.05l-6.74,5.09-6.34-1.61c1.44,2.54,2.51,3.65,2.64,4.86s-.68,2.53-1.07,3.79c-1-.43-2.31-.62-3.06-1.35a57.58,57.58,0,0,1-6.08-6.8,4,4,0,0,1-.28-3.62A26.91,26.91,0,0,1,169.69,273Z" transform="translate(-1 -1)"/><path d="M225.06,239.15c.2,1.44,0,3.15.68,4.26,2.11,3.29.82,5.71-2,6.9a54.1,54.1,0,0,1-12.59,3.54c-1.08.16-2.61-2.54-3.93-3.93a49.32,49.32,0,0,1,4.66-3.94c1.9-1.26,4.72-1.68,5.91-3.35,2-2.81,4-4.25,7.43-3.35Z" transform="translate(-1 -1)"/><path d="M311,286.61c2.12,7.44-5.23,27.57-9.41,28.81-4.95-9.41,2.49-15.77,5.79-23.18C308.14,290.53,309.41,289,311,286.61Z" transform="translate(-1 -1)"/><path d="M219.81,347.55c2-2.52,1.7-7.3,6.71-8.8,1.08-.33,1.79-1.76,2.81-2.47s2.39-1.72,3.12-1.42c1,.4,2.17,2.14,2,3a63,63,0,0,1-3.51,10.74c-.34.78-2.57,1.2-3.82,1A57.85,57.85,0,0,1,219.81,347.55Z" transform="translate(-1 -1)"/><path d="M181.13,257.56h19c-2.19,2.49-4.83,6.05-8,9-3.75,3.45-5.09,2.92-7.24-1.71C184,262.92,182.94,261.07,181.13,257.56Z" transform="translate(-1 -1)"/><path d="M225.18,239.28c.19-3.36-.17-6.88.75-10,.86-2.89,3-3.17,4.94-.17a7.54,7.54,0,0,0,3.18,3.13c3.14,1.17,3.63,3.11,2.34,5.8-1.42,3-3.61,3.32-6.54,1.93-1.41-.66-3.18-.55-4.79-.79Z" transform="translate(-1 -1)"/><path d="M246,308c0-.33.07-.66.07-1-.13-9.85.25-10.39,11.34-15.08-2,5.43-3.49,10.27-5.77,14.69-.57,1.11-3.78.86-5.78,1.24Z" transform="translate(-1 -1)"/><path d="M239.81,286.28l2.73,5.28L239,293.25c-1.56,3.21-2.34,5.78-3.95,7.65-.6.71-3.79.36-4.56-.55-.89-1.06-1.19-3.93-.4-4.86C232.76,292.38,236,289.78,239.81,286.28Z" transform="translate(-1 -1)"/><path d="M268.72,270c-1.22,3.93-1.68,6.75-3,9.08a4.94,4.94,0,0,1-4.35,1.73c-2.24-.56-4.22-2.15-6.3-3.31.66-1,1.1-2.49,2-2.92C260.38,273.06,263.82,271.89,268.72,270Z" transform="translate(-1 -1)"/><path d="M259.22,265.85c3.39-3,5.7-5.42,8.36-7.32a4.63,4.63,0,0,1,4,0c.85.43,1.75,2.84,1.5,3.07-2.34,2-4.71,4.27-7.5,5.37C263.94,267.65,261.53,266.34,259.22,265.85Z" transform="translate(-1 -1)"/><path d="M250.32,208.25c3.45,3.84,2.91,11.22.36,12.19-.93.35-3.77-1.44-3.7-1.78C247.71,215.51,248.89,212.47,250.32,208.25Z" transform="translate(-1 -1)"/><path d="M252.61,271.32c.59-3.17,1.06-5.61,1.52-8.05,1.25,1,3.32,1.74,3.6,3C258.36,268.88,257.63,271.37,252.61,271.32Z" transform="translate(-1 -1)"/><path d="M133.74,338.51c-1-3.34-1.74-5.73-2.47-8.12l1.56-.73c1.57,1.89,3.19,3.74,4.56,5.77A43.67,43.67,0,0,1,133.74,338.51Z" transform="translate(-1 -1)"/><path d="M252.47,228.23l3.37-5.66c.64.6,1.93,1.43,1.82,1.75a57.57,57.57,0,0,1-2.61,5.58Z" transform="translate(-1 -1)"/><path d="M121.17,339.52l5.64,5.71-1.8,1.61-5.25-6Z" transform="translate(-1 -1)"/><path class="cls-1" d="M189.51,92.77c-2.29-.88-4.64-1.65-6.84-2.72a2.91,2.91,0,0,1-1.44-2.25c.06-.64,1.7-1.8,1.92-1.65,5.73,3.89,12.19-1.29,18.49,1.66-1.68,8.4-3.49,16.82-4.95,25.31a10,10,0,0,0,1.18,5.51c1.39,2.94.41,4.42-2.43,5.15-1.6.41-3.41.36-4.81,1.12-4.11,2.25-7.95,3.52-11.39-1.78A16.76,16.76,0,0,1,177.6,126c-1.17,1.26-2.88,3.54-3.68,3.28a8.5,8.5,0,0,1-4.29-3.86,24,24,0,0,1-3.24-8.42c-.46-3.74.06-7.61.37-11.41.12-1.54,1.24-3.07,1.12-4.54-.52-6.6,3.31-9.3,9.46-7.35,3.71,1.19,7.92.83,11.91,1.16Z" transform="translate(-1 -1)"/><path class="cls-1" d="M105.87,316.13c-.31,2.92-.23,6.6-.77,6.69-3.43.6-7.15.91-10.25-3a35.77,35.77,0,0,0,4.59-3.09c2-1.85,3.74-3.92,5.54-5.94,1-1.18,2-2.45,3-3.68.73,1,2.16,2.05,2.05,2.93a14.46,14.46,0,0,1-2.07,5.4C107.61,316.05,106.18,316,105.87,316.13Z" transform="translate(-1 -1)"/><path class="cls-1" d="M198.19,83l-16.41-3.16C187.51,73.74,195,75.06,198.19,83Z" transform="translate(-1 -1)"/><path class="cls-1" d="M219.5,132c-3.49,2.3-9.14,1.63-12.72-1.5C212.16,124.82,214.93,125.15,219.5,132Z" transform="translate(-1 -1)"/><path class="cls-1" d="M231.27,84c2-.88,4-2.5,5.91-2.42,1.73.06,3.39,2,5.08,3.1l-.78,1.85-9.68-.48Z" transform="translate(-1 -1)"/><path class="cls-1" d="M221.15,117c-4,4.58-10.3,5-13.41,1Z" transform="translate(-1 -1)"/><path class="cls-1" d="M211.31,374.07a62.65,62.65,0,0,1-.12,7.51c-.08.72-1.52,1.72-2.38,1.77s-2.51-1.18-2.43-1.51c.69-2.87,1.7-5.66,2.62-8.47Z" transform="translate(-1 -1)"/></g></g></svg>